<svg width="309" height="364" viewBox="0 0 309 364" fill="none" xmlns="http://www.w3.org/2000/svg">
<path d="M9.54168 358.416V360H1.74968V348.64H9.39768V350.224H3.54168V353.456H8.61368V354.944H3.54168V358.416H9.54168ZM17.7103 348.64H19.4063L23.8223 360H21.9343L20.7343 356.912H16.3503L15.1663 360H13.2623L17.7103 348.64ZM20.3823 355.584L18.5583 350.608L16.6703 355.584H20.3823ZM28.2672 360V348.64H33.2112C33.7232 348.64 34.1925 348.747 34.6192 348.96C35.0458 349.173 35.4138 349.456 35.7232 349.808C36.0432 350.16 36.2885 350.555 36.4592 350.992C36.6405 351.429 36.7312 351.877 36.7312 352.336C36.7312 352.837 36.6405 353.317 36.4592 353.776C36.2778 354.235 36.0165 354.629 35.6752 354.96C35.3445 355.291 34.9552 355.531 34.5072 355.68L37.1792 360H35.1632L32.6992 356.048H30.0592V360H28.2672ZM30.0592 354.464H33.1952C33.5258 354.464 33.8192 354.368 34.0752 354.176C34.3312 353.984 34.5338 353.728 34.6832 353.408C34.8325 353.077 34.9072 352.72 34.9072 352.336C34.9072 351.941 34.8218 351.589 34.6512 351.28C34.4805 350.96 34.2565 350.704 33.9792 350.512C33.7125 350.32 33.4192 350.224 33.0992 350.224H30.0592V354.464ZM50.1119 350.224H46.3359V360H44.5279V350.224H40.7359V348.64H50.1119V350.224ZM64.0033 348.64V360H62.1953V354.992H56.4673V360H54.6753V348.64H56.4673V353.392H62.1953V348.64H64.0033ZM86.1511 360V351.904L82.8071 358.048H81.7511L78.3911 351.904V360H76.5991V348.64H78.5191L82.2791 355.584L86.0391 348.64H87.9591V360H86.1511ZM98.2809 360.08C97.4596 360.08 96.7183 359.92 96.0569 359.6C95.3956 359.28 94.8249 358.848 94.3449 358.304C93.8649 357.749 93.4916 357.131 93.2249 356.448C92.9689 355.755 92.8409 355.045 92.8409 354.32C92.8409 353.563 92.9796 352.843 93.2569 352.16C93.5343 351.467 93.9183 350.853 94.4089 350.32C94.8996 349.776 95.4756 349.349 96.1369 349.04C96.8089 348.72 97.5343 348.56 98.3129 348.56C99.1236 348.56 99.8596 348.725 100.521 349.056C101.193 349.387 101.764 349.829 102.233 350.384C102.713 350.939 103.081 351.557 103.337 352.24C103.604 352.923 103.737 353.621 103.737 354.336C103.737 355.093 103.598 355.819 103.321 356.512C103.054 357.195 102.676 357.808 102.185 358.352C101.694 358.885 101.113 359.307 100.441 359.616C99.7796 359.925 99.0596 360.08 98.2809 360.08ZM94.6649 354.32C94.6649 354.853 94.7503 355.371 94.9209 355.872C95.0916 356.373 95.3316 356.821 95.6409 357.216C95.9609 357.6 96.3449 357.904 96.7929 358.128C97.2409 358.352 97.7423 358.464 98.2969 358.464C98.8729 358.464 99.3849 358.347 99.8329 358.112C100.281 357.877 100.654 357.563 100.953 357.168C101.262 356.763 101.497 356.315 101.657 355.824C101.817 355.323 101.897 354.821 101.897 354.32C101.897 353.787 101.812 353.275 101.641 352.784C101.481 352.283 101.241 351.84 100.921 351.456C100.601 351.061 100.217 350.752 99.7689 350.528C99.3316 350.304 98.8409 350.192 98.2969 350.192C97.7209 350.192 97.2089 350.309 96.7609 350.544C96.3129 350.779 95.9343 351.093 95.6249 351.488C95.3156 351.883 95.0756 352.325 94.9049 352.816C94.7449 353.307 94.6649 353.808 94.6649 354.32ZM108.915 348.64L112.339 357.808L115.747 348.64H117.651L113.187 360H111.491L107.011 348.64H108.915ZM129.87 358.416V360H122.078V348.64H129.726V350.224H123.87V353.456H128.942V354.944H123.87V358.416H129.87ZM134.759 360V348.64H139.703C140.215 348.64 140.684 348.747 141.111 348.96C141.538 349.173 141.906 349.456 142.215 349.808C142.535 350.16 142.78 350.555 142.951 350.992C143.132 351.429 143.223 351.877 143.223 352.336C143.223 352.837 143.132 353.317 142.951 353.776C142.77 354.235 142.508 354.629 142.167 354.96C141.836 355.291 141.447 355.531 140.999 355.68L143.671 360H141.655L139.191 356.048H136.551V360H134.759ZM136.551 354.464H139.687C140.018 354.464 140.311 354.368 140.567 354.176C140.823 353.984 141.026 353.728 141.175 353.408C141.324 353.077 141.399 352.72 141.399 352.336C141.399 351.941 141.314 351.589 141.143 351.28C140.972 350.96 140.748 350.704 140.471 350.512C140.204 350.32 139.911 350.224 139.591 350.224H136.551V354.464ZM155.097 351.312C154.991 351.195 154.836 351.072 154.633 350.944C154.431 350.805 154.191 350.677 153.913 350.56C153.636 350.443 153.337 350.347 153.017 350.272C152.697 350.197 152.367 350.16 152.025 350.16C151.279 350.16 150.724 350.299 150.361 350.576C149.999 350.853 149.817 351.237 149.817 351.728C149.817 352.091 149.919 352.379 150.121 352.592C150.324 352.795 150.633 352.965 151.049 353.104C151.465 353.243 151.988 353.392 152.617 353.552C153.385 353.733 154.052 353.952 154.617 354.208C155.183 354.453 155.615 354.784 155.913 355.2C156.212 355.616 156.361 356.165 156.361 356.848C156.361 357.424 156.255 357.92 156.041 358.336C155.828 358.752 155.529 359.093 155.145 359.36C154.761 359.616 154.319 359.808 153.817 359.936C153.316 360.053 152.777 360.112 152.201 360.112C151.636 360.112 151.071 360.053 150.505 359.936C149.951 359.819 149.417 359.648 148.905 359.424C148.404 359.189 147.94 358.907 147.513 358.576L148.329 357.04C148.468 357.179 148.665 357.333 148.921 357.504C149.188 357.664 149.492 357.819 149.833 357.968C150.185 358.117 150.564 358.245 150.969 358.352C151.385 358.448 151.807 358.496 152.233 358.496C152.948 358.496 153.492 358.373 153.865 358.128C154.249 357.872 154.441 357.509 154.441 357.04C154.441 356.656 154.319 356.352 154.073 356.128C153.828 355.893 153.471 355.696 153.001 355.536C152.532 355.376 151.972 355.216 151.321 355.056C150.575 354.853 149.951 354.635 149.449 354.4C148.948 354.155 148.569 353.845 148.313 353.472C148.068 353.088 147.945 352.603 147.945 352.016C147.945 351.269 148.127 350.64 148.489 350.128C148.852 349.605 149.343 349.216 149.961 348.96C150.591 348.693 151.295 348.56 152.073 348.56C152.585 348.56 153.071 348.619 153.529 348.736C153.988 348.843 154.415 348.992 154.809 349.184C155.215 349.376 155.583 349.595 155.913 349.84L155.097 351.312ZM175.68 360L170.224 354.224C169.765 353.733 169.402 353.317 169.136 352.976C168.869 352.635 168.677 352.32 168.56 352.032C168.442 351.744 168.384 351.445 168.384 351.136C168.384 350.613 168.512 350.155 168.768 349.76C169.034 349.365 169.397 349.056 169.856 348.832C170.314 348.608 170.826 348.496 171.392 348.496C171.914 348.496 172.394 348.592 172.832 348.784C173.269 348.965 173.621 349.237 173.888 349.6C174.154 349.952 174.288 350.389 174.288 350.912C174.288 351.403 174.16 351.845 173.904 352.24C173.648 352.635 173.306 352.997 172.88 353.328C172.453 353.659 171.978 353.984 171.456 354.304C171.05 354.571 170.682 354.837 170.352 355.104C170.021 355.36 169.76 355.637 169.568 355.936C169.386 356.224 169.296 356.549 169.296 356.912C169.296 357.275 169.397 357.6 169.6 357.888C169.802 358.165 170.074 358.384 170.416 358.544C170.757 358.693 171.13 358.768 171.536 358.768C172.037 358.768 172.512 358.651 172.96 358.416C173.408 358.181 173.808 357.851 174.16 357.424C174.512 356.987 174.784 356.475 174.976 355.888C175.178 355.301 175.28 354.661 175.28 353.968H176.72C176.72 354.907 176.57 355.755 176.272 356.512C175.984 357.269 175.589 357.92 175.088 358.464C174.597 359.008 174.026 359.429 173.376 359.728C172.736 360.016 172.058 360.16 171.344 360.16C170.608 360.16 169.957 360.016 169.392 359.728C168.826 359.429 168.384 359.035 168.064 358.544C167.754 358.053 167.6 357.504 167.6 356.896C167.6 356.299 167.733 355.781 168 355.344C168.277 354.896 168.629 354.501 169.056 354.16C169.493 353.808 169.93 353.493 170.368 353.216C170.837 352.917 171.242 352.656 171.584 352.432C171.925 352.197 172.192 351.963 172.384 351.728C172.576 351.483 172.672 351.221 172.672 350.944C172.672 350.603 172.549 350.331 172.304 350.128C172.069 349.915 171.765 349.808 171.392 349.808C171.114 349.808 170.869 349.867 170.656 349.984C170.453 350.101 170.293 350.256 170.176 350.448C170.058 350.64 170 350.853 170 351.088C170 351.248 170.042 351.413 170.128 351.584C170.213 351.744 170.373 351.957 170.608 352.224C170.842 352.48 171.168 352.832 171.584 353.28L178 360H175.68ZM197.217 350.224H193.441V360H191.633V350.224H187.841V348.64H197.217V350.224ZM201.78 360V348.64H206.724C207.236 348.64 207.706 348.747 208.132 348.96C208.559 349.173 208.927 349.456 209.236 349.808C209.556 350.16 209.802 350.555 209.972 350.992C210.154 351.429 210.244 351.877 210.244 352.336C210.244 352.837 210.154 353.317 209.972 353.776C209.791 354.235 209.53 354.629 209.188 354.96C208.858 355.291 208.468 355.531 208.02 355.68L210.692 360H208.676L206.212 356.048H203.572V360H201.78ZM203.572 354.464H206.708C207.039 354.464 207.332 354.368 207.588 354.176C207.844 353.984 208.047 353.728 208.196 353.408C208.346 353.077 208.42 352.72 208.42 352.336C208.42 351.941 208.335 351.589 208.164 351.28C207.994 350.96 207.77 350.704 207.492 350.512C207.226 350.32 206.932 350.224 206.612 350.224H203.572V354.464ZM218.678 348.64H220.374L224.79 360H222.902L221.702 356.912H217.318L216.134 360H214.23L218.678 348.64ZM221.35 355.584L219.526 350.608L217.638 355.584H221.35ZM231.027 351.968V360H229.235V348.64H230.707L237.139 356.848V348.656H238.947V360H237.379L231.027 351.968ZM251.261 351.312C251.154 351.195 251 351.072 250.797 350.944C250.594 350.805 250.354 350.677 250.077 350.56C249.8 350.443 249.501 350.347 249.181 350.272C248.861 350.197 248.53 350.16 248.189 350.16C247.442 350.16 246.888 350.299 246.525 350.576C246.162 350.853 245.981 351.237 245.981 351.728C245.981 352.091 246.082 352.379 246.285 352.592C246.488 352.795 246.797 352.965 247.213 353.104C247.629 353.243 248.152 353.392 248.781 353.552C249.549 353.733 250.216 353.952 250.781 354.208C251.346 354.453 251.778 354.784 252.077 355.2C252.376 355.616 252.525 356.165 252.525 356.848C252.525 357.424 252.418 357.92 252.205 358.336C251.992 358.752 251.693 359.093 251.309 359.36C250.925 359.616 250.482 359.808 249.981 359.936C249.48 360.053 248.941 360.112 248.365 360.112C247.8 360.112 247.234 360.053 246.669 359.936C246.114 359.819 245.581 359.648 245.069 359.424C244.568 359.189 244.104 358.907 243.677 358.576L244.493 357.04C244.632 357.179 244.829 357.333 245.085 357.504C245.352 357.664 245.656 357.819 245.997 357.968C246.349 358.117 246.728 358.245 247.133 358.352C247.549 358.448 247.97 358.496 248.397 358.496C249.112 358.496 249.656 358.373 250.029 358.128C250.413 357.872 250.605 357.509 250.605 357.04C250.605 356.656 250.482 356.352 250.237 356.128C249.992 355.893 249.634 355.696 249.165 355.536C248.696 355.376 248.136 355.216 247.485 355.056C246.738 354.853 246.114 354.635 245.613 354.4C245.112 354.155 244.733 353.845 244.477 353.472C244.232 353.088 244.109 352.603 244.109 352.016C244.109 351.269 244.29 350.64 244.653 350.128C245.016 349.605 245.506 349.216 246.125 348.96C246.754 348.693 247.458 348.56 248.237 348.56C248.749 348.56 249.234 348.619 249.693 348.736C250.152 348.843 250.578 348.992 250.973 349.184C251.378 349.376 251.746 349.595 252.077 349.84L251.261 351.312ZM257.362 360V348.64H262.13C262.642 348.64 263.112 348.747 263.538 348.96C263.965 349.173 264.338 349.456 264.658 349.808C264.978 350.16 265.224 350.555 265.394 350.992C265.565 351.429 265.65 351.877 265.65 352.336C265.65 352.965 265.506 353.568 265.218 354.144C264.941 354.709 264.541 355.168 264.018 355.52C263.506 355.872 262.909 356.048 262.226 356.048H259.154V360H257.362ZM259.154 354.464H262.114C262.456 354.464 262.754 354.373 263.01 354.192C263.266 354 263.464 353.744 263.602 353.424C263.752 353.104 263.826 352.741 263.826 352.336C263.826 351.92 263.741 351.552 263.57 351.232C263.4 350.912 263.176 350.667 262.898 350.496C262.632 350.315 262.338 350.224 262.018 350.224H259.154V354.464ZM275.091 360.08C274.27 360.08 273.528 359.92 272.867 359.6C272.206 359.28 271.635 358.848 271.155 358.304C270.675 357.749 270.302 357.131 270.035 356.448C269.779 355.755 269.651 355.045 269.651 354.32C269.651 353.563 269.79 352.843 270.067 352.16C270.344 351.467 270.728 350.853 271.219 350.32C271.71 349.776 272.286 349.349 272.947 349.04C273.619 348.72 274.344 348.56 275.123 348.56C275.934 348.56 276.67 348.725 277.331 349.056C278.003 349.387 278.574 349.829 279.043 350.384C279.523 350.939 279.891 351.557 280.147 352.24C280.414 352.923 280.547 353.621 280.547 354.336C280.547 355.093 280.408 355.819 280.131 356.512C279.864 357.195 279.486 357.808 278.995 358.352C278.504 358.885 277.923 359.307 277.251 359.616C276.59 359.925 275.87 360.08 275.091 360.08ZM271.475 354.32C271.475 354.853 271.56 355.371 271.731 355.872C271.902 356.373 272.142 356.821 272.451 357.216C272.771 357.6 273.155 357.904 273.603 358.128C274.051 358.352 274.552 358.464 275.107 358.464C275.683 358.464 276.195 358.347 276.643 358.112C277.091 357.877 277.464 357.563 277.763 357.168C278.072 356.763 278.307 356.315 278.467 355.824C278.627 355.323 278.707 354.821 278.707 354.32C278.707 353.787 278.622 353.275 278.451 352.784C278.291 352.283 278.051 351.84 277.731 351.456C277.411 351.061 277.027 350.752 276.579 350.528C276.142 350.304 275.651 350.192 275.107 350.192C274.531 350.192 274.019 350.309 273.571 350.544C273.123 350.779 272.744 351.093 272.435 351.488C272.126 351.883 271.886 352.325 271.715 352.816C271.555 353.307 271.475 353.808 271.475 354.32ZM285.442 360V348.64H290.386C290.898 348.64 291.368 348.747 291.794 348.96C292.221 349.173 292.589 349.456 292.898 349.808C293.218 350.16 293.464 350.555 293.634 350.992C293.816 351.429 293.906 351.877 293.906 352.336C293.906 352.837 293.816 353.317 293.634 353.776C293.453 354.235 293.192 354.629 292.85 354.96C292.52 355.291 292.13 355.531 291.682 355.68L294.354 360H292.338L289.874 356.048H287.234V360H285.442ZM287.234 354.464H290.37C290.701 354.464 290.994 354.368 291.25 354.176C291.506 353.984 291.709 353.728 291.858 353.408C292.008 353.077 292.082 352.72 292.082 352.336C292.082 351.941 291.997 351.589 291.826 351.28C291.656 350.96 291.432 350.704 291.154 350.512C290.888 350.32 290.594 350.224 290.274 350.224H287.234V354.464ZM307.287 350.224H303.511V360H301.703V350.224H297.911V348.64H307.287V350.224Z" fill="white"/>
<path d="M15.904 320.232C15.7547 320.083 15.4773 319.88 15.072 319.624C14.688 319.368 14.208 319.123 13.632 318.888C13.0773 318.653 12.4693 318.451 11.808 318.28C11.1467 318.088 10.4747 317.992 9.792 317.992C8.59733 317.992 7.69067 318.216 7.072 318.664C6.47467 319.112 6.176 319.741 6.176 320.552C6.176 321.171 6.368 321.661 6.752 322.024C7.136 322.387 7.712 322.696 8.48 322.952C9.248 323.208 10.208 323.485 11.36 323.784C12.8533 324.147 14.144 324.595 15.232 325.128C16.3413 325.64 17.184 326.323 17.76 327.176C18.3573 328.008 18.656 329.117 18.656 330.504C18.656 331.72 18.432 332.765 17.984 333.64C17.536 334.493 16.9173 335.187 16.128 335.72C15.3387 336.253 14.4427 336.648 13.44 336.904C12.4373 337.139 11.3707 337.256 10.24 337.256C9.10933 337.256 7.97867 337.139 6.848 336.904C5.71733 336.669 4.62933 336.339 3.584 335.912C2.53867 335.464 1.57867 334.931 0.704 334.312L2.656 330.504C2.848 330.696 3.18933 330.952 3.68 331.272C4.17067 331.571 4.768 331.88 5.472 332.2C6.176 332.499 6.944 332.755 7.776 332.968C8.608 333.181 9.45067 333.288 10.304 333.288C11.4987 333.288 12.4053 333.085 13.024 332.68C13.6427 332.275 13.952 331.699 13.952 330.952C13.952 330.269 13.7067 329.736 13.216 329.352C12.7253 328.968 12.0427 328.637 11.168 328.36C10.2933 328.061 9.25867 327.741 8.064 327.4C6.63467 326.995 5.44 326.547 4.48 326.056C3.52 325.544 2.80533 324.904 2.336 324.136C1.86667 323.368 1.632 322.408 1.632 321.256C1.632 319.699 1.99467 318.397 2.72 317.352C3.46667 316.285 4.46933 315.485 5.728 314.952C6.98667 314.397 8.384 314.12 9.92 314.12C10.9867 314.12 11.9893 314.237 12.928 314.472C13.888 314.707 14.784 315.016 15.616 315.4C16.448 315.784 17.1947 316.2 17.856 316.648L15.904 320.232ZM26.473 337V314.28H30.889V337H26.473ZM40.1092 337V314.28H48.3652C50.8399 314.28 52.9092 314.792 54.5732 315.816C56.2373 316.819 57.4852 318.184 58.3172 319.912C59.1493 321.619 59.5653 323.517 59.5653 325.608C59.5653 327.912 59.1066 329.917 58.1893 331.624C57.2719 333.331 55.9706 334.653 54.2852 335.592C52.6212 336.531 50.6479 337 48.3652 337H40.1092ZM55.1173 325.608C55.1173 324.136 54.8506 322.845 54.3172 321.736C53.7839 320.605 53.0159 319.731 52.0132 319.112C51.0106 318.472 49.7946 318.152 48.3652 318.152H44.5252V333.128H48.3652C49.8159 333.128 51.0426 332.808 52.0452 332.168C53.0479 331.507 53.8052 330.611 54.3172 329.48C54.8506 328.328 55.1173 327.037 55.1173 325.608ZM67.4955 337V314.28H75.7515C78.2262 314.28 80.2955 314.792 81.9595 315.816C83.6235 316.819 84.8715 318.184 85.7035 319.912C86.5355 321.619 86.9515 323.517 86.9515 325.608C86.9515 327.912 86.4928 329.917 85.5755 331.624C84.6582 333.331 83.3568 334.653 81.6715 335.592C80.0075 336.531 78.0342 337 75.7515 337H67.4955ZM82.5035 325.608C82.5035 324.136 82.2368 322.845 81.7035 321.736C81.1702 320.605 80.4022 319.731 79.3995 319.112C78.3968 318.472 77.1808 318.152 75.7515 318.152H71.9115V333.128H75.7515C77.2022 333.128 78.4288 332.808 79.4315 332.168C80.4342 331.507 81.1915 330.611 81.7035 329.48C82.2368 328.328 82.5035 327.037 82.5035 325.608ZM113.986 314.28V337H109.602V327.304H99.2977V337H94.8817V314.28H99.2977V323.464H109.602V314.28H113.986ZM123.206 337V314.28H127.622V337H123.206ZM150.252 314.28L156.396 331.752L162.476 314.28H167.116L158.508 337H154.252L145.612 314.28H150.252ZM174.02 337V314.28H178.436V337H174.02ZM192.073 322.408V337H187.657V314.28H191.177L202.921 329.256V314.312H207.337V337H203.657L192.073 322.408ZM222.719 314.28H227.199L235.551 337H231.007L228.895 331.336H220.959L218.879 337H214.335L222.719 314.28ZM228.095 328.232L224.959 318.856L221.695 328.232H228.095ZM242.677 314.28L248.277 324.968L253.973 314.28H258.741L250.485 329.064V337H246.101V329L237.877 314.28H242.677ZM269.492 314.28H273.972L282.324 337H277.78L275.668 331.336H267.732L265.652 337H261.108L269.492 314.28ZM274.868 328.232L271.732 318.856L268.468 328.232H274.868ZM289.295 337V314.312H293.711V325.096L303.247 314.28H308.111L299.407 324.36L308.655 337H303.663L296.591 327.208L293.711 330.216V337H289.295Z" fill="white"/>
<path d="M198.643 68.9716L157.259 0L115.875 68.9716H198.643Z" fill="#FCC900"/>
<path d="M144.844 161.394L179.33 102.078H111.737L144.844 161.394Z" fill="#FCC900"/>
<path d="M0 264.851L84.1473 122.769L125.531 193.12H267.616L309 264.851H0Z" fill="#FCC900"/>
<path d="M179.324 102.083L198.636 68.9766H115.868L84.1406 122.774L125.525 193.125L144.837 161.398L111.73 102.083H179.324Z" fill="#E0A700"/>
<path d="M115.873 68.9766L84.1451 122.774L53.7969 68.9766H115.873Z" fill="#9A7502"/>
<path d="M162.775 193.125L144.842 161.398L125.529 193.125H162.775Z" fill="#9A7502"/>
<path d="M204.158 264.856H81.3862L70.3504 285.547H215.194L204.158 264.856Z" fill="#9A7502"/>
<path d="M198.643 68.9687L157.259 0L115.875 68.9687H198.643Z" fill="#FCC900"/>
<path d="M144.844 161.387L179.33 102.074H111.737L144.844 161.387Z" fill="#FCC900"/>
<path d="M0 264.84L84.1473 122.764L125.531 193.112H267.616L309 264.84H0Z" fill="#FCC900"/>
<path d="M198.636 68.9844L179.324 102.089H111.73L144.837 161.402L125.525 193.128H162.792L204.269 264.929H166.94L125.525 193.128L84.1406 122.78L115.868 68.9844H198.636Z" fill="#E0A700"/>
<path d="M115.873 68.9844L84.1451 122.78L53.7969 68.9844H115.873Z" fill="#9A7502"/>
<path d="M162.775 193.128L144.842 161.402L125.529 193.128H162.775Z" fill="#9A7502"/>
<path d="M204.158 264.856H81.3862L70.3504 285.546H215.194L204.158 264.856Z" fill="#9A7502"/>
</svg>
